<svg width="1085" height="1085" viewBox="0 0 1085 1085" fill="none" xmlns="http://www.w3.org/2000/svg">
<g filter="url(#filter0_b_1099_2847)">
<path d="M708.087 191.271C708.087 191.271 725.197 199.953 738.586 202.874C739.653 203.098 740.76 203.025 741.789 202.666C742.818 202.306 743.727 201.673 744.42 200.834C747.403 197.309 751.565 191.271 747.321 189.1C746.721 188.79 746.087 188.447 745.416 188.085C739.234 184.741 729.96 179.725 716.019 183.568C700.565 187.827 705.695 190.52 708.087 191.271Z" fill="#1976D2"/>
<path d="M615.376 203.005C615.376 203.005 616.703 198.876 619.997 198.876C620.953 198.876 622.391 198.725 624.016 198.554C627.992 198.137 633.087 197.602 634.96 198.876C637.598 200.671 636.435 206.22 633.321 206.237C630.207 206.253 614.048 205.388 615.376 203.005Z" fill="#1976D2"/>
<path d="M216.738 417.809C215.115 428.58 224.309 428.058 224.309 428.058C226.053 428.297 227.843 426.224 230.019 423.705C231.258 422.27 232.623 420.69 234.175 419.311C237.484 416.368 238.361 413.436 240.045 407.8C240.538 406.151 241.1 404.272 241.812 402.093C244.958 392.464 257.331 390 259.347 390C261.363 390 258.429 398.192 250.121 407.674C247.782 410.343 245.185 412.875 242.573 415.421C235.905 421.923 229.146 428.512 226.391 437.671C222.556 450.417 229.078 456.455 234.027 454.888C236.32 454.163 237.441 451.582 238.973 448.056C240.749 443.97 243.076 438.615 248.416 433.411C253.668 428.294 256.457 423.467 258.946 419.162C261.171 415.313 263.155 411.88 266.443 409.029C271.85 403.96 276.786 398.416 281.193 392.464C299.92 352.777 359.93 302.918 377.463 288.351C379.706 286.487 381.254 285.201 381.931 284.588C384.151 282.578 387.269 280.647 390.31 278.764C395.441 275.587 400.351 272.546 400.351 269.492C400.351 264.629 397.664 261.936 393.304 262.475C388.945 263.013 354.3 286.204 328.309 307.241C302.317 328.277 276.85 368.245 272.704 376.862C268.557 385.479 267.099 379.62 267.099 371.46C267.099 366.429 268.544 363.482 270.033 360.447C270.959 358.56 271.901 356.639 272.523 354.161C274.146 347.698 264.395 352.561 261.691 356.331C260.865 357.483 259.28 358.836 257.478 360.374C253.38 363.873 248.154 368.334 248.154 373.582C248.154 381.138 244.368 384.924 237.321 389.771C230.275 394.618 218.36 407.038 216.738 417.809Z" fill="#1976D2"/>
<path d="M406.347 256.42C405.501 256.841 404.764 257.453 404.195 258.206C403.626 258.959 403.241 259.834 403.07 260.761C402.955 261.341 402.961 261.937 403.084 262.515C403.208 263.093 403.449 263.64 403.791 264.123C405.888 267.011 411.378 264.759 414.918 261.544C418.458 258.329 440.418 244.996 440.418 244.996C440.418 244.996 416.213 251.377 406.347 256.42Z" fill="#1976D2"/>
<path d="M239.341 471.013C244.405 476.268 247.683 471.013 247.683 471.013C254.268 466.185 262.477 452.954 267.693 444.546C269.37 441.844 270.737 439.64 271.642 438.373C275.362 433.167 296.798 403.546 303.599 395.223C305.141 393.336 306.035 391.623 307.111 389.56C310.781 382.523 316.578 371.41 357.484 335.394C410.385 288.816 469.874 240.443 542.949 237.979C616.024 235.515 700.276 287.951 700.276 287.951C701.467 287.463 702.547 286.741 703.451 285.828C704.356 284.914 705.066 283.828 705.538 282.635C706.011 281.442 706.237 280.166 706.203 278.884C706.169 277.601 705.875 276.339 705.34 275.173C623.054 224.009 555.781 218.836 523.004 225.217C490.228 231.598 459.238 248.489 436.737 261.235C415.024 273.535 373.062 306.987 347.663 327.236L344.963 329.388C319.938 349.331 293.799 381.514 287.391 391.992C280.983 402.469 257.171 439.989 249.076 447.464C240.98 454.938 234.277 465.758 239.341 471.013Z" fill="#1976D2"/>
<path d="M726.331 232.511C636.163 197.815 578.198 206.138 561.367 209.891C560.851 210.01 560.387 210.291 560.044 210.693C559.701 211.096 559.498 211.597 559.465 212.124C559.432 212.65 559.57 213.173 559.86 213.615C560.15 214.057 560.575 214.394 561.072 214.575C565.83 216.043 570.739 216.968 575.707 217.333C583.388 218.107 590.781 219.198 597.721 220.223C608.357 221.793 617.931 223.206 625.854 223.078C638.949 222.866 671.43 226.603 691.047 233.915C710.663 241.226 718.907 244.376 718.907 244.376C718.907 244.376 723.069 244.767 726.249 240.035C729.428 235.302 726.331 232.511 726.331 232.511Z" fill="#1976D2"/>
<path d="M709.089 265.265C720.381 264.482 717.005 252.438 717.005 252.438C717.005 252.438 674.215 235.514 651.419 229.361C628.623 223.209 616.479 234.078 634.162 236.265C643.012 237.359 658.942 244.818 674.064 251.898C689.159 258.966 703.449 265.657 709.089 265.265Z" fill="#1976D2"/>
<path d="M655.236 195.596C654.748 195.776 654.325 196.097 654.022 196.518C653.719 196.939 653.55 197.441 653.536 197.959C653.522 198.477 653.664 198.987 653.943 199.424C654.223 199.861 654.627 200.204 655.105 200.41C660.251 202.614 668.527 205.714 675.197 206.237C685.701 207.053 714.168 216.029 727.737 223.063C736.423 227.502 740.848 211.802 735.243 209.811C732.231 208.753 727.876 207.129 723.027 205.32C711.492 201.019 697.16 195.673 691.437 194.421C684.587 192.919 665.986 191.842 655.236 195.596Z" fill="#1976D2"/>
<path d="M679.547 300.879C655.155 286.725 595.554 252.141 499.145 265.282C490.699 266.48 483.48 272.243 478.044 276.584C475.631 278.51 473.57 280.155 471.908 280.998C460.985 286.374 450.459 292.515 440.41 299.374C420.11 313.745 401.297 330.091 384.247 348.171C367.138 366.678 345.981 405.863 340.917 415.508C335.853 425.153 316.957 446.712 311.418 452.228C305.879 457.744 293.014 486.174 284.214 506.411C275.413 526.648 264.335 523.841 266.187 508.696C268.039 493.551 298.914 450.808 306.289 442.142C313.663 433.476 352.454 377.401 354.29 372.717C356.125 368.033 350.586 366.842 345.522 372.717C343.243 375.361 337.041 384.48 330.223 394.504C321.891 406.755 312.638 420.36 308.501 425.153C300.979 433.868 267.645 488.361 267.645 488.361C267.645 488.361 263.056 500.568 256.01 496.602C248.963 492.637 251.126 483.514 259.386 473.281C262.924 468.897 276.583 449.202 291.402 427.832C311.171 399.326 333.008 367.837 335.64 365.748C337.255 364.466 340.235 363.211 343.895 361.67C350.669 358.818 359.775 354.984 366.892 348.171C370.776 344.454 374.698 339.837 378.759 335.056C386.162 326.34 394.024 317.084 402.946 311.761C405.867 310.019 409.814 306.612 414.878 302.243C433.762 285.945 468.169 256.251 522.744 249.533C591.951 241.014 666.386 271.19 697.016 296.502C697.016 296.502 699.146 305.037 691.493 306.572C689.905 306.89 685.933 304.585 679.547 300.879Z" fill="#1976D2"/>
<path d="M365.964 387.242C365.964 387.242 395.119 343.178 426.601 321.701C438.659 313.474 448.694 306.239 457.038 300.222C470.477 290.531 479.532 284.002 485.598 281.586C486.165 281.36 486.811 281.091 487.539 280.787L487.551 280.782C499.452 275.816 533.242 261.716 604.806 277.995C680.782 295.278 689.943 320.069 686.354 324.965C683.23 329.225 673.927 324.093 660.074 316.452C658.008 315.312 655.84 314.116 653.577 312.888C636.14 303.422 603.446 289.077 577.241 289.73C551.036 290.382 498.971 308.318 495.71 311.582C492.449 314.846 492.104 305.723 500.938 303.765C505.625 302.726 509.491 300.216 512.918 297.991C515.948 296.024 518.635 294.279 521.243 293.973C526.798 293.32 535.336 291.362 535.336 286.808C535.336 282.255 516.67 282.891 507.165 286.808C499.731 289.872 475.673 302.9 462.259 310.164C458.523 312.187 455.612 313.763 454.117 314.552C452.639 315.332 451.07 316.078 449.501 316.824C443.777 319.547 438.048 322.271 436.761 326.613C435.123 332.145 423.979 345.332 418.423 348.204C412.867 351.077 384.68 373.256 381.746 378.478C378.813 383.701 374.814 387.781 365.964 387.242Z" fill="#1976D2"/>
<path d="M443.384 345.805C427.652 357.621 423.948 352.154 423.948 352.154C424.267 348.53 439.628 338.918 449.344 332.838C453.102 330.486 456.02 328.66 456.888 327.918C460.002 325.258 463.87 331.329 462.526 331.329C461.823 331.329 460.923 332.057 457.973 334.442C455.283 336.616 450.888 340.169 443.384 345.805Z" fill="#1976D2"/>
<path d="M467.654 342.428C467.654 342.428 463.262 341.138 471.85 335.1C480.437 329.061 537.239 294.936 578.209 297.09C619.18 299.245 666.706 323.431 674.9 330.563C683.094 337.695 677.292 351.926 674.9 351.061C674.533 350.928 673.023 349.911 670.601 348.281C657.244 339.285 616.151 311.613 586.24 310.701C550.907 309.624 515.344 323.007 500.382 332.293L498.353 333.554C484.934 341.906 479.795 345.104 467.654 342.428Z" fill="#1976D2"/>
<path d="M512.514 339.592C512.817 339.906 513.205 340.126 513.631 340.223C528.274 343.728 537.771 341.037 548.55 337.984C558.954 335.036 570.554 331.75 589.131 333.369C618.322 335.9 639.277 356.635 651.24 368.473C655.55 372.738 658.693 375.848 660.633 376.535C667.959 379.13 669.909 366.156 668.827 360.558C667.746 354.96 646.932 330.774 595.998 319.986C554.814 311.255 523.398 329.044 512.877 336.192C512.515 336.436 512.232 336.78 512.063 337.182C511.895 337.584 511.847 338.026 511.927 338.454C512.007 338.882 512.211 339.277 512.514 339.592Z" fill="#1976D2"/>
<path d="M565.852 349.347L561.411 347.894C561.288 347.853 561.181 347.774 561.105 347.668C561.029 347.563 560.988 347.436 560.988 347.307C560.988 347.177 561.029 347.051 561.105 346.945C561.181 346.84 561.288 346.761 561.411 346.719C567.967 345.087 589.37 340.942 608.74 348.351C625.85 354.879 639.665 367.315 645.729 373.403C645.915 373.6 646.031 373.853 646.057 374.122C646.084 374.391 646.02 374.662 645.876 374.891C645.732 375.121 645.515 375.296 645.26 375.39C645.005 375.484 644.726 375.491 644.467 375.41L565.852 349.347Z" fill="#1976D2"/>
<path d="M283.715 541.842C289.893 547.211 292.236 540.21 292.236 540.21C298.851 528.997 300.922 521.73 302.965 514.562C305.204 506.706 307.409 498.969 315.524 486.288C331.044 462.037 327.209 446.533 326.996 450.613C326.783 454.693 311.64 472.841 307.379 477.084C303.118 481.327 286.058 516.791 283.715 522.519L283.357 523.387C281.016 529.054 277.842 536.738 283.715 541.842Z" fill="#1976D2"/>
<path d="M305.673 563.776C305.673 563.776 303.33 568.672 299.282 563.776C295.234 558.88 299.052 547.456 303.969 535.754C306.264 530.291 308.97 521.691 311.53 513.555C314.453 504.264 317.186 495.58 318.898 492.865C322.11 487.773 322.52 499.23 322.52 502.657C322.52 502.98 322.53 503.437 322.542 504.012C322.657 509.543 322.999 525.994 317.391 540.03C314.248 548.297 310.325 556.248 305.673 563.776Z" fill="#1976D2"/>
<path d="M315.052 585.221C320.607 594.344 325.294 586.706 325.294 586.706C328.49 582.887 329.555 574.483 329.555 571.888C329.555 570.578 328.741 568.257 327.797 565.569C326.872 562.931 325.822 559.939 325.294 557.2C324.229 551.667 322.312 547.424 321.033 549.121C320.352 550.026 319.162 553.568 317.951 557.171C316.892 560.325 315.816 563.526 315.052 565.049C313.189 568.087 312.204 571.577 312.204 575.135C312.204 578.694 313.189 582.184 315.052 585.221Z" fill="#1976D2"/>
<path d="M335.944 595.829C335.944 595.829 334.305 590.574 332.961 589.693C331.617 588.812 327.914 593.92 327.569 597.739C327.379 599.855 328.511 601.195 329.654 602.546C330.574 603.633 331.5 604.728 331.748 606.242C332.306 609.636 335.026 605.393 335.944 601.786C336.48 599.837 336.48 597.779 335.944 595.829Z" fill="#1976D2"/>
<path d="M374.407 425.985C352.43 451.412 347.907 483.269 347.907 483.269C347.907 483.269 351.66 489.079 353.528 478.781C355.397 468.483 369.294 453.371 371.555 453.044L371.609 453.036C372.247 452.944 372.669 452.883 372.807 453.052C373.077 453.383 372.257 454.597 369.831 458.191C369.217 459.1 368.5 460.162 367.671 461.4C361.854 470.099 341.516 522.225 340.86 536.064C340.205 549.904 344.417 550.23 346.35 550.23C348.284 550.23 368.016 505.497 368.327 499.377C368.554 494.92 375.619 479.205 380.709 467.885C382.609 463.66 384.234 460.045 385.125 457.859C388.047 450.685 386.527 448.908 385.478 447.682C385.35 447.533 385.23 447.392 385.125 447.251C384.704 446.683 383.363 446.726 381.97 446.771C380.159 446.83 378.26 446.891 378.176 445.619C378.102 444.478 381.62 440.445 385.325 436.199C388.936 432.061 392.723 427.721 393.532 425.659C394.193 423.975 396.476 420.664 399.048 416.934C402.856 411.412 407.299 404.97 408.052 401.522C409.314 395.744 406.413 396.381 406.413 396.381C406.413 396.381 396.383 400.559 374.407 425.985Z" fill="#1976D2"/>
<path d="M400.35 480.054C400.35 480.054 395.09 492.49 384.11 491.576C376.575 490.949 382.004 478.026 387.001 466.134C389.286 460.695 391.481 455.472 392.304 451.738C394.926 439.841 415.247 395.744 419.41 391.876C423.572 388.009 434.929 383.716 436.552 387.307C437.477 389.355 435.347 392.019 432.626 395.423C430.576 397.986 428.191 400.97 426.522 404.427C425.666 406.201 424.372 408.727 422.864 411.672C417.533 422.08 409.517 437.731 408.61 444.003C407.446 452.048 400.35 480.054 400.35 480.054Z" fill="#1976D2"/>
<path d="M390.35 503.506C390.376 504.49 390.195 505.468 389.818 506.378C393.201 502.846 396.338 499.089 399.209 495.134C406.141 486.158 408.206 474.668 408.321 466.835C408.435 459.001 415.613 445.423 415.613 445.423C438.45 392.951 450.529 381.955 454.898 377.977C455.376 377.542 455.762 377.191 456.059 376.879C459.075 373.712 475.512 371.313 480.101 371.77C483.194 372.078 481.887 375.411 479.858 380.585C478.876 383.087 477.726 386.02 476.823 389.249C474.054 399.155 468.973 413.615 466.663 416.406C464.352 419.196 454.798 432.661 454.175 438.781C453.647 443.972 450.194 460.517 447.178 474.971L447.173 474.996C446.635 477.574 446.111 480.085 445.62 482.453C442.375 498.104 443.309 519.728 444.227 520.805C445.145 521.882 458.37 557.64 461.32 568.754C464.27 579.868 485.984 621.696 492.458 628.828C498.931 635.96 498.931 639.876 492.458 644.25C485.984 648.624 482.068 646.323 482.068 646.323C460.527 622.353 450.006 582.521 445.435 565.215C443.728 558.755 442.851 555.434 442.539 557.248C441.392 563.923 448.046 593.854 451.782 606.045C455.288 617.485 469.994 644.533 472.713 649.534L473.087 650.223C474.201 652.296 467.646 662.415 459.452 658.971C451.258 655.527 437.41 617.551 434.869 606.273C432.329 594.996 424.66 538.153 427.937 504.322C429.815 483.107 434.16 462.18 440.884 441.963C441.958 438.583 445.775 431.718 449.497 425.025C452.874 418.951 456.173 413.018 457.272 409.959C457.975 408.004 458.997 405.325 460.079 402.488C462.557 395.994 465.352 388.67 465.352 387.307C465.352 385.349 463.352 385.12 461.435 385.952C460.317 386.438 456.578 393.414 452.964 400.156C450.378 404.981 447.856 409.686 446.407 411.803C443.606 415.895 434.202 436.426 428.97 447.849L428.956 447.879C427.704 450.612 426.693 452.821 426.069 454.154C422.841 461.057 416.81 526.175 420.284 564.38C423.758 602.585 441.966 648.396 445.243 654.14C447.364 657.524 448.499 661.428 448.521 665.417C448.521 667.033 436.033 674.622 433.034 674.165C430.035 673.708 428.413 656.197 427.954 650.452C427.495 644.707 412.467 588.093 409.927 593.152C407.386 598.211 415.007 635.274 417.088 642.406C417.526 643.906 418.455 646.201 419.564 648.944C423.731 659.241 430.45 675.847 423.332 680.383C414.319 686.128 412.27 677.739 412.27 677.739C400.568 651.447 396.045 622.543 399.16 593.952C399.16 590.525 401.225 567.171 401.913 560.3C402.601 553.429 403.978 530.418 401.913 530.418C400.436 530.418 399.839 532.355 398.648 536.222C398.174 537.762 397.604 539.61 396.849 541.76C394.194 549.316 392.26 585.71 392.948 594.295C393.637 602.879 394.325 634.148 392.948 640.317C391.961 644.74 388.144 653.761 385.168 660.792C383.994 663.566 382.95 666.034 382.263 667.784C380.319 672.741 380.386 680.781 380.43 686.08C380.441 687.393 380.451 688.537 380.428 689.424C380.227 692.985 379.296 696.467 377.693 699.655C376.089 702.844 373.846 705.672 371.103 707.964C364.302 713.464 352.83 714.835 352.83 713.464C352.83 712.82 355.269 707.999 358.069 702.465C361.228 696.221 364.846 689.069 365.941 685.981C366.852 683.408 369.31 679.023 371.771 674.632C374.884 669.077 378.002 663.513 378.002 661.599C378.002 658.171 379.74 630.705 380.772 625.205C381.805 619.705 382.165 591.895 380.313 591.553C378.461 591.21 371.464 616.62 369.644 625.205C367.825 633.789 364.564 621.761 363.515 616.963C362.486 610.82 362.844 604.526 364.564 598.538C365.359 596.322 365.988 591.962 366.642 587.427C367.472 581.674 368.343 575.639 369.644 573.34C370.358 572.078 371.779 570.492 373.445 568.632C377.209 564.429 382.227 558.827 383.181 552.401C384.558 543.131 384.558 520.805 384.558 520.805C384.558 520.805 370.398 535.232 371.791 544.29C373.184 553.347 371.382 560.643 367.317 565.947C363.253 571.251 359.123 578.839 359.123 584.682C359.123 590.525 356.354 594.654 353.945 592.238C351.535 589.823 349.126 575.069 349.126 567.513C349.126 559.957 371.169 507.08 374.545 501.662C374.93 501.043 375.274 500.466 375.591 499.934C378.05 495.805 378.912 494.356 385.328 496.929C386.273 497.216 387.148 497.697 387.896 498.34C388.643 498.984 389.248 499.776 389.671 500.665C390.094 501.555 390.325 502.522 390.35 503.506Z" fill="#1976D2"/>
<path d="M395.8 660.325C394.926 660.18 394.032 660.209 393.169 660.409C392.306 660.609 391.491 660.976 390.771 661.49C390.051 662.004 389.44 662.654 388.973 663.404C388.506 664.153 388.191 664.987 388.048 665.858C387.158 670.288 387.205 676.746 387.239 681.578C387.255 683.866 387.269 685.79 387.18 686.959C387.053 688.612 386.028 691.491 385.065 694.198C383.906 697.455 382.836 700.462 383.525 700.783C384.787 701.37 393.358 699.33 397.553 694.385C401.749 689.44 405.436 682.733 405.288 676.188C405.141 669.644 402.961 660.325 395.8 660.325Z" fill="#1976D2"/>
<path d="M508.328 372.587C509.967 374.04 504.33 380.911 504.33 380.911C504.33 380.911 491.612 408.051 488.531 413.486C485.45 418.92 466.735 457.452 470.914 473.282C474.558 487.085 473.094 501.383 471.931 512.738C471.76 514.407 471.596 516.012 471.455 517.542C470.357 529.489 486.335 565.85 489.384 570.925C492.432 576.001 515.801 617.797 515.801 617.797L525.241 628.666C525.241 628.666 512.95 642.603 500.659 628.666C488.368 614.728 460.131 549.04 455.591 517.004C451.052 484.967 455.067 461.989 456.509 455.134C457.183 451.929 461.154 443.247 465.491 433.763C470.429 422.966 475.842 411.131 477.404 405.162C480.337 393.95 492.17 373.86 495.431 370.058C498.692 366.255 506.69 371.135 508.328 372.587Z" fill="#1976D2"/>
<path d="M493.99 463.326C494.317 457.319 495.418 451.378 497.267 445.651C500.037 438.176 503.003 425.724 497.267 422.982C491.531 420.241 481.78 422.232 481.78 443.154C481.78 449.69 481.301 456.542 480.791 463.825C479.668 479.854 478.4 497.97 481.78 519.369C486.697 550.491 510.542 606.11 541.81 634.85C560.392 651.928 566.073 655.337 570.878 658.219C574.159 660.187 577.031 661.91 583.322 667.571C598.825 681.525 677.046 696.229 698.826 693.471C720.606 690.713 726.341 680.529 727.341 676.792C728.341 673.055 725.342 666.821 722.343 669.562L722.33 669.574C719.297 672.347 703.011 687.237 650.317 675.536C597.547 663.818 583.272 650.892 580.273 648.15C578.779 646.785 570.64 638.619 562.415 630.367L562.407 630.359L562.381 630.333L562.374 630.326C554.102 622.027 545.755 613.653 544.006 612.034C540.516 608.803 506.313 562.47 506.313 555.991C506.313 554.414 508.94 558.193 513.768 565.143C528.771 586.735 565.036 638.928 609.854 656.115C669.097 678.832 690.648 674.801 702.152 671.064L703.897 670.498C714.786 666.972 725.096 663.632 725.096 659.852C725.096 655.87 724.85 647.889 720.835 647.889C719.4 647.889 715.699 649.545 711.045 651.627C702.679 655.37 691.23 660.492 684.322 659.852C679.797 659.433 674.473 657.999 668.761 656.46C660.904 654.344 652.312 652.03 644.056 651.888C629.798 651.643 599.529 634.213 592.286 627.228C591.213 626.194 589.422 624.865 587.023 623.086C573.219 612.848 539.303 587.693 506.494 517.884C506.494 517.884 492.318 475.582 493.99 463.326Z" fill="#1976D2"/>
<path d="M578.961 672.125C582.042 671.57 597.742 682.178 597.742 682.178C597.742 682.178 603.658 690.404 661.132 697.046C708.711 702.545 719.384 693.347 723.248 690.017C724.051 689.325 724.561 688.886 725.046 688.886C727.865 688.886 728.946 699.233 727.504 702.856C726.062 706.479 711.607 711.522 702.922 712.354C697.589 712.865 693.307 712.638 683.723 712.13C677.696 711.81 669.573 711.379 657.772 710.951C637.465 709.919 617.596 704.69 599.43 695.593C598.075 694.84 594.614 695.145 591.092 695.455C588.054 695.722 584.971 695.994 583.157 695.593C579.24 694.728 576.995 688.902 576.716 683.304L576.675 682.503L576.643 681.915C576.37 676.898 576.138 672.634 578.961 672.125Z" fill="#1976D2"/>
<path d="M605.32 705.369C605.32 705.369 593.848 696.981 590.177 700.343C586.506 703.705 585.982 713.742 597.748 716.532C603.117 717.806 611.528 720.01 619.647 722.137C629.324 724.673 638.584 727.099 641.783 727.712C647.667 728.838 664.514 731.628 677.411 731.628C685.258 731.628 693.002 729.454 699.067 727.75C702.97 726.654 706.178 725.753 708.27 725.753C713.613 725.753 729.296 725.753 730.149 722.489C730.8 719.994 729.497 715.437 728.709 712.679C728.466 711.831 728.272 711.15 728.198 710.755C727.887 709.074 723.413 709.629 720.316 711.31C717.218 712.991 698.732 718.85 690.309 719.47C681.885 720.09 658.893 720.645 638.702 715.733C627.36 713.005 616.209 709.543 605.32 705.369Z" fill="#1976D2"/>
<path d="M627.774 744.194C694.524 754.525 718.647 738.041 718.647 738.041C718.647 738.041 725.383 735.528 721.449 730.224C718.367 726.067 711.157 729.118 704.404 731.975C702.541 732.764 700.712 733.537 699.014 734.141C691.164 736.932 672.924 737.699 659.092 737.209C645.261 736.719 594.965 720.155 591.032 718.767C588.426 717.848 585.086 714.099 582.638 711.351C581.392 709.951 580.376 708.811 579.806 708.437C578.118 707.327 561.025 733.864 627.774 744.194Z" fill="#1976D2"/>
<path d="M587.865 738.89C587.865 738.89 581.769 734.696 581.769 738.89C581.769 743.084 585.046 749.776 591.602 752.844C596.788 755.577 602.564 757.017 608.432 757.038C615.57 757.665 622.519 759.654 628.901 762.897C634.506 765.704 654.434 773.521 689.21 767.091C723.985 760.661 732.393 752.566 734.081 750.053C735.768 747.54 734.916 743.068 734.081 739.445C733.245 735.822 730.803 734.043 727.525 737.013C724.248 739.984 704.041 757.87 654.68 754.802C605.318 751.734 587.865 738.89 587.865 738.89Z" fill="#1976D2"/>
<path d="M606.444 762.62C617.653 759.83 621.865 765.705 621.865 765.705C621.865 765.705 623.831 775.236 658.394 778.304C685.011 780.667 711.686 768.637 725.104 762.586C729.11 760.78 731.934 759.506 733.223 759.307C738.827 758.442 741.335 763.191 735.025 770.731C728.716 778.271 709.099 783.853 699.561 786.089C693.126 787.597 678.389 788.727 666.436 789.643C660.672 790.085 655.556 790.477 652.33 790.838C642.416 791.947 639.826 790.838 637.581 788.879C637.124 788.481 635.1 787.273 632.26 785.578C621.142 778.943 597.515 764.843 606.444 762.62Z" fill="#1976D2"/>
<path d="M669.852 796.191C669.852 796.191 653.071 796.403 653.71 799.944C654.349 803.486 662.297 810.406 669.852 808.937C671.142 808.686 673.442 808.277 676.412 807.75L676.445 807.744L676.489 807.736L676.55 807.725L676.582 807.719C691.074 805.146 721.089 799.816 728.194 796.191C730.43 795.05 732.566 794.12 734.502 793.278L734.51 793.274C740.018 790.878 743.911 789.185 743.911 785.321C743.911 780.099 742.386 773.898 738.748 775.236C738.194 775.44 736.875 776.141 734.937 777.173C724.153 782.911 694.21 798.846 669.852 796.191Z" fill="#1976D2"/>
<path d="M685.245 819.169C685.245 817.08 703.633 811.237 703.633 811.237C708.063 810.906 724.791 802.284 733.222 797.938L733.233 797.933C735.585 796.72 737.292 795.841 737.9 795.57C739.151 794.994 740.513 794.695 741.891 794.695C743.269 794.695 744.631 794.994 745.881 795.57C747.34 796.614 749.225 804.742 748.602 809.132C748.129 812.462 738.728 814.712 731.19 816.516C728.79 817.091 726.578 817.62 724.904 818.124C721.922 819.023 717.816 821.085 713.621 823.193C708.066 825.983 702.353 828.852 698.88 829.206C692.784 829.826 685.245 821.258 685.245 819.169Z" fill="#1976D2"/>
<path d="M721.302 839.651C719.292 840.691 717.06 841.234 714.795 841.234C712.531 841.234 710.299 840.691 708.289 839.651C701.16 836.093 703.668 832.193 709.928 829.239C714.148 827.248 720.489 824.693 725.525 822.665C727.959 821.684 730.091 820.825 731.528 820.214C735.936 818.337 747.097 814.159 748.654 815.824C750.21 817.488 752.718 821.895 752.308 823.347C751.898 824.8 721.302 839.651 721.302 839.651Z" fill="#1976D2"/>
<path d="M720.213 848.838C720.213 850.519 731.324 856.362 731.324 856.362C735.732 857.194 760.233 850.927 760.233 845.182C760.233 839.438 754.366 834.003 754.366 834.003C754.366 834.003 731.537 843.191 728.145 843.191C724.752 843.191 720.213 847.157 720.213 848.838Z" fill="#1976D2"/>
<path d="M760.284 868.896C760.284 868.896 754.204 870.153 750.631 868.896C748.699 868.216 746.585 866.501 744.82 865.068C743.321 863.853 742.074 862.841 741.405 862.841C739.946 862.841 744.797 859.708 748.665 859.577C751.314 859.488 755.095 858.318 757.956 857.433C759.271 857.026 760.392 856.679 761.12 856.525C763.431 856.036 766.364 859.169 766.364 863.053C766.364 866.937 760.284 868.896 760.284 868.896Z" fill="#1976D2"/>
<path d="M539.722 376.96C539.722 378.216 533.265 384.516 533.265 384.516C526.808 391.99 518.335 413.109 517.778 418.38C517.221 423.651 519.433 438.323 521.662 447.185C522.632 451.043 524.602 462.203 526.771 474.486L526.773 474.495C529.585 490.426 532.731 508.244 534.461 514.473C536.246 520.897 541.421 531.584 545.597 540.208C548.592 546.393 551.074 551.518 551.423 553.249C552.259 557.394 585.92 592.287 590.64 594.229C592.486 594.989 597.993 599.606 604.797 605.31C615.382 614.185 629.107 625.693 637.068 629.398C650.145 635.486 689.92 642.406 697.294 642.96C704.669 643.515 699.359 648.264 699.359 648.264C670.368 653.617 632.905 651.626 597.031 623.589C523.333 565.979 509.977 512.253 503.864 460.192C497.751 408.131 516.991 370.938 522.498 369.746C528.004 368.555 539.722 375.703 539.722 376.96Z" fill="#1976D2"/>
<path d="M558.922 390.048C558.922 390.048 565.871 388.204 566.149 385.952C566.428 383.7 565.314 378.38 556.316 376.878C547.319 375.377 538.65 381.774 532.537 397.817C526.424 413.859 529.26 447.936 536.995 468.972C540.068 477.332 541.217 485.039 542.41 493.047C544.22 505.193 546.133 518.032 555.022 534.889C557.09 538.811 558.857 542.184 560.382 545.095C569.736 562.949 570.016 563.482 575.032 567.284C579.326 570.54 594.931 585.66 604.641 595.069L604.651 595.078C608.126 598.446 610.849 601.084 612.02 602.177C616.461 606.322 640.109 621.842 644.796 621.842C649.483 621.842 651.483 614.368 651.204 610.761C650.926 607.154 650.368 605.229 643.961 604.951C637.553 604.674 628.392 594.147 628.392 594.147C628.392 594.147 594.19 562.029 591.404 560.365C588.618 558.7 561.102 527.414 561.102 523.808C561.102 520.201 561.659 514.669 563.888 517.72C564.132 518.055 564.543 518.632 565.095 519.407C569.581 525.706 583.385 545.091 592.797 553.722C603.367 563.417 636.733 591.65 644.796 594.98C652.859 598.309 656.481 598.586 657.038 592.205C657.596 585.824 661.48 582.788 664.823 584.731C668.166 586.673 693.273 601.051 701.155 600.235C705.42 599.793 710.797 596.104 715.406 592.942C719.316 590.259 722.673 587.955 724.328 588.337C727.934 589.17 717.658 600.79 714.315 602.732C710.972 604.674 717.101 608.819 718.215 609.374C720.291 610.525 722.681 610.987 725.039 610.694C727.396 610.4 729.599 609.366 731.326 607.742C737.455 602.487 738.012 595.567 734.112 585.873C731.772 580.058 730.411 572.181 729.379 566.202C728.69 562.216 728.147 559.072 727.557 557.949C727.355 557.566 727.16 557.148 726.965 556.731C725.737 554.101 724.534 551.526 721.903 557.949L721.609 558.67C718.492 566.33 712.665 580.652 693.535 581.711C673.787 582.805 652.105 580.079 628.179 564.265C604.252 548.451 575.343 526.892 552.547 462.64C529.751 398.388 558.922 390.048 558.922 390.048Z" fill="#1976D2"/>
<path fill-rule="evenodd" clip-rule="evenodd" d="M715.949 525.92C717.013 525.682 718.126 525.818 719.101 526.305C720.494 527.415 721.969 535.379 721.969 538.153C721.969 540.928 721.133 567.578 694.715 573.323C672.78 578.093 654.674 568.415 643.589 562.49C641.324 561.28 639.352 560.226 637.701 559.484C627.966 555.11 605.449 535.46 594.321 525.211C583.193 514.962 572.639 491.984 569.296 482.012C568.564 479.827 567.569 477.057 566.429 473.883C562.367 462.573 556.463 446.132 554.006 432.726C551.64 419.816 554.667 413.476 557.025 408.537C557.803 406.908 558.508 405.431 558.922 403.921C560.594 397.833 575.343 389.526 581.456 387.323C587.569 385.12 592.289 394.227 592.01 396.381C591.732 398.535 590.502 406.695 590.502 406.695C589.032 416.675 598.021 433.958 605.896 449.098L606.76 450.759C614.823 466.28 643.191 501.711 665.429 513.902C683.3 523.698 699.932 504.925 707.214 496.706C708.994 494.697 710.215 493.319 710.759 493.142C713.529 492.245 715.495 504.697 712.988 512.727C710.48 520.756 712.152 529.34 713.267 527.61C713.938 526.755 714.886 526.158 715.949 525.92ZM598.497 513.414L598.502 513.421C600.294 516.12 601.64 518.148 601.941 518.553C602.974 519.973 620.378 535.167 620.378 535.167C620.657 532.115 613.708 521.866 606.202 513.281C600.064 506.798 593.362 500.867 586.176 495.558C587.163 496.344 594.142 506.855 598.497 513.414ZM649.48 538.979C655.061 543.238 663.414 549.612 680.72 550.214C701.86 550.981 707.072 540.112 706.072 538.48C705.072 536.848 701.221 536.815 697.173 538.48C696.915 538.586 696.611 538.72 696.264 538.873C691.173 541.117 676.641 547.521 655.301 532.947C632.505 517.378 606.628 489.487 603.433 483.106C602.833 481.908 601.552 479.783 599.872 476.996C592.604 464.943 577.877 440.515 578.556 425.218C578.556 425.218 576.638 415.524 576.917 413.321C577.195 411.118 569.968 414.708 571.082 419.278C572.197 423.847 583.242 462.608 587.208 470.36C591.174 478.112 601.188 489.095 613.43 501.743C618.261 506.735 623.486 512.65 628.391 518.202C635.913 526.718 642.682 534.381 646.124 536.554C647.152 537.203 648.249 538.04 649.48 538.979Z" fill="#1976D2"/>
<path fill-rule="evenodd" clip-rule="evenodd" d="M707.972 474.799C706.718 474.799 704.835 476.137 702.925 477.494C699.845 479.683 696.696 481.921 696.008 478.667C695.468 476.111 696.65 472.128 698.022 467.504C699.48 462.589 701.153 456.949 701.203 451.526C701.302 441 699.073 421.35 694.075 411.379C689.076 401.407 684.34 393.1 675.72 398.323C667.827 403.105 670.884 407.066 674.237 411.408C674.546 411.808 674.857 412.212 675.163 412.619C675.493 413.06 675.872 413.552 676.288 414.092L676.293 414.099C680.443 419.488 688.273 429.658 688.273 440.984C688.273 453.452 686.339 470.36 681.603 471.437C676.867 472.514 665.215 468.662 654.35 460.633C643.484 452.603 626.49 437.099 623.212 432.399C619.934 427.699 612.92 416.324 614.87 414.447C616.821 412.57 619.869 411.673 622.655 416.928C625.441 422.183 640.174 437.703 644.058 441.31C644.522 441.741 645.098 442.279 645.76 442.897L645.777 442.913C650.658 447.472 660.178 456.364 664.084 459.034C664.577 459.37 665.084 459.735 665.602 460.107C669.748 463.089 674.59 466.571 678.538 460.404C682.98 453.468 683.275 437.703 679.932 431.616C676.588 425.528 670.869 415.296 669.148 412.668C667.427 410.041 664.084 405.585 657.676 408.343C651.269 411.101 651.842 416.095 653.776 418.037C654.238 418.502 655.196 419.251 656.397 420.191C660.216 423.18 666.496 428.094 667.132 431.893C667.266 432.689 667.434 433.576 667.607 434.487C668.518 439.295 669.561 444.795 666.296 441.31C664.64 439.542 661.917 436.097 659.145 432.591C655.416 427.875 651.599 423.047 650.171 422.036C647.68 420.273 629.308 409.176 629.308 409.176C629.308 409.176 607.348 400.036 605.955 397.833C604.562 395.63 600.023 395.059 603.267 408.066C603.735 409.941 604.187 411.862 604.646 413.811C607.369 425.386 610.326 437.953 618.181 447.675C625.711 456.994 627.062 461.458 628.382 465.816C628.671 466.768 628.958 467.719 629.308 468.711C631.259 474.244 649.892 502.233 674.081 508.043C695.243 513.126 704.276 492.564 707.138 486.049C707.547 485.117 707.83 484.473 708.004 484.232C709.397 482.306 711.315 474.799 707.972 474.799ZM684.897 491.625C684.353 495.375 679.655 494.035 675.249 492.778C672.887 492.104 670.609 491.454 669.099 491.625C664.772 492.114 656.251 484.493 650.974 478.34C645.697 472.188 641.518 465.937 643.189 465.105C644.022 464.69 646.097 466.545 648.794 468.957C651.509 471.385 654.855 474.377 658.201 476.186C658.9 476.564 659.627 476.963 660.375 477.374C666.761 480.883 674.689 485.238 680.161 484.493C686.274 483.66 684.897 491.625 684.897 491.625Z" fill="#1976D2"/>
<path d="M731.67 617.862C731.67 615.479 736.587 609.947 736.587 609.947C740.708 609.017 740.954 613.589 741.128 616.832C741.152 617.29 741.176 617.721 741.208 618.107L741.229 618.358C741.483 621.346 741.669 623.541 738.815 625.287C735.882 627.083 734.063 626.022 734.161 623.655C734.211 622.458 733.573 621.599 732.93 620.734C732.302 619.889 731.67 619.039 731.67 617.862Z" fill="#1976D2"/>
<path d="M741.31 629.987C741.31 629.987 736.263 633.153 736.591 636.841C736.744 638.561 736.625 640.172 736.516 641.667C736.39 643.377 736.276 644.938 736.591 646.339C737.181 648.967 741.409 649.244 742.736 646.339C743.036 645.683 743.377 645.08 743.705 644.499C744.83 642.506 745.818 640.757 744.588 637.902C743.985 636.503 743.826 634.618 743.686 632.972C743.458 630.278 743.284 628.224 741.31 629.987Z" fill="#1976D2"/>
<path d="M738.754 668.241C738.214 671.146 745.162 666.135 745.162 666.135L745.223 666.097C748.843 663.851 751.19 662.394 747.768 655.837C745.351 651.207 744.623 651.913 743.581 652.925C743.139 653.354 742.641 653.838 741.934 653.993C740.154 654.384 739.56 660.553 739.147 664.846C739.008 666.283 738.89 667.512 738.754 668.241Z" fill="#1976D2"/>
<path d="M750.686 674.835C750.686 674.835 752.57 667.785 747.261 672.109C745.158 673.822 743.645 674.646 742.602 675.214C741.011 676.081 740.517 676.35 740.705 678.262C741.017 681.428 742.213 686.422 745.097 685.655C745.49 685.551 745.924 685.478 746.374 685.402C749.228 684.924 752.738 684.336 750.686 674.835Z" fill="#1976D2"/>
<path d="M746.011 698.581C745.306 693.57 753.861 689.604 753.861 689.604C755.735 688.533 755.852 691.067 755.991 694.106C756.066 695.743 756.148 697.527 756.516 698.972C757.564 703.101 754.664 708.275 752.795 708.373C750.927 708.471 746.715 703.591 746.011 698.581Z" fill="#1976D2"/>
</g>
<path fill-rule="evenodd" clip-rule="evenodd" d="M543 1024.09C808.699 1024.09 1024.09 808.699 1024.09 543C1024.09 277.301 808.699 61.9089 543 61.9089C277.301 61.9089 61.9094 277.301 61.9094 543C61.9094 808.699 277.301 1024.09 543 1024.09ZM543 1041.27C818.189 1041.27 1041.27 818.188 1041.27 543C1041.27 267.811 818.189 44.7271 543 44.7271C267.812 44.7271 44.7275 267.811 44.7275 543C44.7275 818.188 267.812 1041.27 543 1041.27Z" fill="#1976D2"/>
<path fill-rule="evenodd" clip-rule="evenodd" d="M542.5 1058C827.203 1058 1058 827.203 1058 542.5C1058 257.797 827.203 27 542.5 27C257.797 27 27 257.797 27 542.5C27 827.203 257.797 1058 542.5 1058ZM542.5 1085C842.115 1085 1085 842.115 1085 542.5C1085 242.886 842.115 0 542.5 0C242.886 0 0 242.886 0 542.5C0 842.115 242.886 1085 542.5 1085Z" fill="#1976D2"/>
<defs>
<filter id="filter0_b_1099_2847" x="197.546" y="163.182" width="587.818" height="725.273" filterUnits="userSpaceOnUse" color-interpolation-filters="sRGB">
<feFlood flood-opacity="0" result="BackgroundImageFix"/>
<feGaussianBlur in="BackgroundImageFix" stdDeviation="9.5"/>
<feComposite in2="SourceAlpha" operator="in" result="effect1_backgroundBlur_1099_2847"/>
<feBlend mode="normal" in="SourceGraphic" in2="effect1_backgroundBlur_1099_2847" result="shape"/>
</filter>
</defs>
</svg>
